{
  "accessors": [
    {
      "bufferView": 3,
      "componentType": 5126,
      "count": 1194,
      "max": [
        2.6004881858825684,
        10.28404426574707,
        1.9601647853851318
      ],
      "min": [
        -4.5994534492492676,
        0.027086257934570312,
        -1.4166406393051147
      ],
      "type": "VEC3"
    },
    {
      "bufferView": 3,
      "byteOffset": 14328,
      "componentType": 5126,
      "count": 1194,
      "max": [
        0.98673039674758911,
        0.99724411964416504,
        0.99916517734527588
      ],
      "min": [
        -0.9682992696762085,
        -0.99999558925628662,
        -0.99994194507598877
      ],
      "type": "VEC3"
    },
    {
      "bufferView": 2,
      "componentType": 5126,
      "count": 1194,
      "max": [
        1,
        0.9791719913482666
      ],
      "min": [
        0,
        0
      ],
      "type": "VEC2"
    },
    {
      "bufferView": 1,
      "componentType": 5125,
      "count": 1776,
      "max": [
        1193
      ],
      "min": [
        0
      ],
      "type": "SCALAR"
    },
    {
      "bufferView": 5,
      "componentType": 5126,
      "count": 10,
      "max": [
        1,
        0.13698185980319977,
        0.13340587913990021,
        0,
        0.73932242393493652,
        1,
        0,
        0,
        0.015311125665903091,
        0.30681663751602173,
        1.0000001192092896,
        0,
        1.1911880970001221,
        0,
        0.79896509647369385,
        1
      ],
      "min": [
        0.6733517050743103,
        -0.73676800727844238,
        -0.0013420626055449247,
        0,
        -0.13698185980319977,
        0.67099618911743164,
        -0.27671971917152405,
        0,
        -5.041027907282114e-05,
        -1.4264657233198363e-09,
        0.95164555311203003,
        0,
        -0.98080289363861084,
        -7.6503291130065918,
        -0.33947727084159851,
        1
      ],
      "type": "MAT4"
    },
    {
      "bufferView": 0,
      "componentType": 5123,
      "count": 1194,
      "max": [
        9,
        9,
        9,
        9
      ],
      "min": [
        1,
        1,
        1,
        1
      ],
      "type": "VEC4"
    },
    {
      "bufferView": 4,
      "componentType": 5126,
      "count": 1194,
      "max": [
        1,
        0.41095355153083801,
        0.22094739973545074,
        0.069241374731063843
      ],
      "min": [
        0.43112123012542725,
        0,
        0,
        0
      ],
      "type": "VEC4"
    }
  ],
  "asset": {
    "extras": {
      "author": "venture.dalton (https://sketchfab.com/venture.dalton)",
      "license": "CC-BY-4.0 (http://creativecommons.org/licenses/by/4.0/)",
      "source": "https://sketchfab.com/3d-models/low-poly-gloved-hand-1f5b60b45c4a43a0984042e23ced7fc6",
      "title": "Low Poly Gloved Hand"
    },
    "generator": "Sketchfab-9.72.0",
    "version": "2.0"
  },
  "bufferViews": [
    {
      "buffer": 0,
      "byteLength": 9552,
      "byteOffset": 0,
      "byteStride": 8,
      "name": "shortBufferViews",
      "target": 34962
    },
    {
      "buffer": 0,
      "byteLength": 7104,
      "byteOffset": 9552,
      "name": "floatBufferViews",
      "target": 34963
    },
    {
      "buffer": 0,
      "byteLength": 9552,
      "byteOffset": 16656,
      "byteStride": 8,
      "name": "floatBufferViews",
      "target": 34962
    },
    {
      "buffer": 0,
      "byteLength": 28656,
      "byteOffset": 26208,
      "byteStride": 12,
      "name": "floatBufferViews",
      "target": 34962
    },
    {
      "buffer": 0,
      "byteLength": 19104,
      "byteOffset": 54864,
      "byteStride": 16,
      "name": "floatBufferViews",
      "target": 34962
    },
    {
      "buffer": 0,
      "byteLength": 640,
      "byteOffset": 73968,
      "byteStride": 64,
      "name": "floatBufferViews"
    }
  ],
  "buffers": [
    {
      "byteLength": 74608,
      "uri": "scene.bin"
    }
  ],
  "materials": [
    {
      "doubleSided": true,
      "emissiveFactor": [
        0,
        0,
        0
      ],
      "name": "glove",
      "pbrMetallicRoughness": {
        "baseColorFactor": [
          1,
          1,
          1,
          1
        ],
        "metallicFactor": 0,
        "roughnessFactor": 0.5
      }
    }
  ],
  "meshes": [
    {
      "primitives": [
        {
          "attributes": {
            "JOINTS_0": 5,
            "NORMAL": 1,
            "POSITION": 0,
            "TEXCOORD_0": 2,
            "WEIGHTS_0": 6
          },
          "indices": 3,
          "material": 0,
          "mode": 4
        }
      ]
    }
  ],
  "nodes": [
    {
      "children": [
        1
      ],
      "name": "RootNode (gltf orientation matrix)",
      "rotation": [
        -0.70710678118654746,
        -0,
        -0,
        0.70710678118654757
      ]
    },
    {
      "children": [
        2
      ],
      "name": "RootNode (model correction matrix)"
    },
    {
      "children": [
        3
      ],
      "name": "root"
    },
    {
      "children": [
        4
      ],
      "matrix": [
        1,
        0,
        0,
        0,
        0,
        2.2204460492503131e-16,
        1,
        0,
        0,
        -1,
        2.2204460492503131e-16,
        0,
        0,
        0,
        0,
        1
      ],
      "name": "GLTF_SceneRootNode"
    },
    {
      "children": [
        5
      ],
      "matrix": [
        1,
        0,
        0,
        0,
        0,
        1,
        0,
        0,
        0,
        0,
        1,
        0,
        0,
        0.59721440076828003,
        0,
        1
      ],
      "name": "Glove_10"
    },
    {
      "children": [
        6,
        8,
        7
      ],
      "name": "GLTF_created_0"
    },
    {
      "children": [
        9
      ],
      "name": "GLTF_created_0_rootJoint"
    },
    {
      "name": "Glove Mesh_9"
    },
    {
      "mesh": 0,
      "name": "",
      "skin": 0
    },
    {
      "children": [
        10,
        12,
        14,
        16
      ],
      "name": "root_8",
      "rotation": [
        2.3786133951375632e-08,
        -5.6759400735018062e-08,
        -0.0031073600985109806,
        0.99999517202377319
      ],
      "scale": [
        1,
        0.99999994039535522,
        0.99999994039535522
      ],
      "translation": [
        -0.085056617856025696,
        0.19846534729003906,
        5.0791579830899991e-09
      ]
    },
    {
      "children": [
        11
      ],
      "name": "index1_1",
      "rotation": [
        1.6646863443270377e-08,
        2.1447252862571986e-08,
        0.028147915378212929,
        0.99960380792617798
      ],
      "scale": [
        1,
        0.99999994039535522,
        1
      ],
      "translation": [
        -1.4179835319519043,
        4.7919626235961914,
        2.2331623483751173e-07
      ]
    },
    {
      "name": "index2_0",
      "rotation": [
        0.0053598657250404358,
        -0.00015468451601918787,
        0.027899645268917084,
        0.99959635734558105
      ],
      "scale": [
        0.99999994039535522,
        0.99999994039535522,
        1
      ],
      "translation": [
        -5.9604587931971764e-08,
        1.9330441951751709,
        1.127986593019159e-13
      ]
    },
    {
      "children": [
        13
      ],
      "name": "ring1_3",
      "rotation": [
        1.362234858248712e-08,
        -5.1046292526280013e-08,
        -0.011034197174012661,
        0.99993914365768433
      ],
      "translation": [
        0.084951423108577728,
        4.7412619590759277,
        6.4013057965439657e-08
      ]
    },
    {
      "name": "ring2_2",
      "rotation": [
        0.0076062306761741638,
        -2.3177748516900465e-05,
        -0.0063749686814844608,
        0.99995076656341553
      ],
      "scale": [
        0.99999994039535522,
        0.99999994039535522,
        1
      ],
      "translation": [
        -7.4504082903104063e-09,
        2.0190541744232178,
        6.9277916736609768e-14
      ]
    },
    {
      "children": [
        15
      ],
      "name": "pinkie1_5",
      "rotation": [
        1.143243011370032e-08,
        1.1859291504379144e-07,
        -0.065552547574043274,
        0.99784910678863525
      ],
      "translation": [
        1.5961829423904419,
        4.5717315673828125,
        -9.9170186729224952e-08
      ]
    },
    {
      "name": "pinkie2_4",
      "rotation": [
        0.0052600018680095673,
        -1.8774813725030981e-05,
        0.01304905116558075,
        0.99990105628967285
      ],
      "scale": [
        1,
        0.99999994039535522,
        1
      ],
      "translation": [
        1.192091971802256e-07,
        1.7610678672790527,
        6.3948846218409017e-14
      ]
    },
    {
      "children": [
        17
      ],
      "name": "thumb1_7",
      "rotation": [
        0.03812548890709877,
        0.0168452188372612,
        0.4066254198551178,
        0.91264373064041138
      ],
      "scale": [
        0.99999982118606567,
        0.99999994039535522,
        1
      ],
      "translation": [
        -2.0954251289367676,
        2.2058181762695312,
        0.64439791440963745
      ]
    },
    {
      "name": "thumb2_6",
      "rotation": [
        0.11110761761665344,
        -0.040048133581876755,
        -0.16219665110111237,
        0.97966504096984863
      ],
      "translation": [
        1.8917489796876907e-09,
        1.4117040634155273,
        2.9802322387695312e-08
      ]
    }
  ],
  "scene": 0,
  "scenes": [
    {
      "name": "OSG_Scene",
      "nodes": [
        0
      ]
    }
  ],
  "skins": [
    {
      "inverseBindMatrices": 4,
      "joints": [
        6,
        9,
        10,
        11,
        12,
        13,
        14,
        15,
        16,
        17
      ],
      "skeleton": 6
    }
  ]
}

