# Blender v2.78 (sub 0) OBJ File: 'head.blend'
# www.blender.org
mtllib head.mtl
o Plane_Plane.002
v 1.237169 6.170243 -1.889629
v 1.948554 5.840356 -1.889629
v -0.923350 5.736019 -1.889629
v 0.053619 6.170243 -1.889629
v 2.413325 5.110001 -1.889629
v -1.501943 4.920298 -1.889629
v 2.432296 4.047666 -1.889629
v 2.119286 3.374221 -1.889630
v 0.753911 3.070425 -2.172204
v 0.535753 2.871237 -2.172204
v -1.606763 2.738707 -1.889630
v 0.431416 2.302129 -2.172204
v -1.521397 2.473123 -1.889630
v -0.147177 1.884783 -1.889630
v -1.284268 1.714312 -1.889630
v -1.569339 3.254366 -1.889630
v 1.424244 5.888109 -2.610931
v 1.237169 6.170243 -2.328796
v 1.948554 5.840356 -2.328796
v 1.557832 5.826160 -2.610931
v -0.495834 5.751552 -2.610931
v -0.923350 5.736019 -2.328797
v 0.053619 6.170243 -2.328796
v -0.188589 5.888109 -2.610931
v 2.413325 5.110001 -2.328797
v 2.025528 5.091211 -2.610931
v -1.070620 4.941196 -2.610931
v -1.501943 4.920298 -2.328797
v 2.432296 4.047666 -2.328797
v 2.044162 4.047666 -2.610931
v -1.119182 4.047666 -2.610931
v -1.549369 4.047666 -2.328797
v 2.119286 3.374222 -2.328797
v 1.836219 3.600273 -2.610931
v 0.753911 3.070425 -2.328797
v 0.619218 3.329490 -2.610931
v -1.597278 3.099142 -2.328797
v -1.170196 3.093925 -2.610931
v 0.535753 2.871237 -2.328797
v 0.086915 2.843473 -2.610931
v -1.178847 2.765176 -2.610931
v -1.606763 2.738707 -2.328797
v 0.431416 2.302129 -2.328797
v -0.005321 2.340371 -2.610931
v -1.072334 2.433802 -2.610931
v -1.521397 2.473123 -2.328797
v -0.266146 2.152235 -2.610931
v -0.147177 1.884783 -2.328797
v -0.952203 2.049383 -2.610932
v -1.284268 1.714312 -2.328797
v -1.569339 3.254366 -2.328797
v -1.138800 3.268356 -2.610931
v -1.798853 3.246908 -1.889630
v -1.552075 3.940176 -1.889629
v -1.549369 4.047666 -1.841741
v -1.546770 4.095484 -1.889629
v -1.549369 4.047666 -1.937517
v -1.597278 3.099142 -1.841741
v -1.586947 3.156538 -1.889630
v -1.597278 3.099142 -1.937518
v -1.598538 3.051270 -1.889630
v -1.800551 3.236588 -1.889630
v -1.810044 3.178877 -1.841741
v -1.893201 3.397977 -1.841741
v -1.852288 3.372905 -1.889629
v 1.985346 3.294737 -2.172204
v 1.985346 3.294737 -2.328797
v 1.517805 3.529426 -2.610931
v -1.576649 3.213753 -2.328797
v -1.147015 3.222718 -2.610931
v 0.303551 2.209899 -2.172204
v -1.468993 2.305431 -1.889630
v 0.303551 2.209899 -2.328797
v -0.062961 2.298794 -2.610931
v -1.468993 2.305431 -2.328797
v -1.045786 2.348848 -2.610931
v 2.282041 2.195315 -2.172204
v 2.260367 1.971003 -2.172204
v 2.046505 1.667438 -2.172204
v 1.430930 1.445378 -2.172204
v 0.584217 1.350781 -2.172204
v 1.948554 5.840356 -1.354359
v -0.923350 5.736019 -1.354359
v 1.237169 6.170243 -1.354359
v 0.053619 6.170243 -1.354359
v 2.413325 5.110001 -1.354359
v -1.501943 4.920298 -1.354359
v 2.432296 4.047666 -1.354359
v -1.549369 4.047666 -1.354359
v 2.119286 3.374222 -1.354359
v -1.597278 3.099142 -1.354359
v -1.606763 2.738707 -1.354359
v -1.521397 2.473123 -1.354359
v -0.147177 1.884783 -1.354359
v -1.284268 1.714312 -1.354359
v 1.237169 6.170243 -0.819088
v 1.948554 5.840356 -0.819088
v -0.923350 5.736019 -0.819088
v 0.053619 6.170243 -0.819088
v 2.413325 5.110001 -0.819088
v -1.501943 4.920298 -0.819088
v 2.432296 4.047666 -0.819088
v 2.119286 3.374221 -0.819088
v 0.753911 3.070425 -0.536514
v 0.535753 2.871237 -0.536514
v -1.606763 2.738707 -0.819088
v 0.431416 2.302129 -0.536514
v -1.521397 2.473123 -0.819088
v -0.147177 1.884783 -0.819088
v -1.284268 1.714312 -0.819088
v -1.569339 3.254366 -0.819088
v 1.424244 5.888109 -0.097786
v 1.237169 6.170243 -0.379921
v 1.948554 5.840356 -0.379921
v 1.557832 5.826160 -0.097786
v -0.495834 5.751552 -0.097786
v -0.923350 5.736019 -0.379921
v 0.053619 6.170243 -0.379921
v -0.188589 5.888109 -0.097786
v 2.413325 5.110001 -0.379921
v 2.025528 5.091211 -0.097786
v -1.070620 4.941196 -0.097786
v -1.501943 4.920298 -0.379921
v 2.432296 4.047666 -0.379921
v 2.044162 4.047666 -0.097786
v -1.119182 4.047666 -0.097786
v -1.549369 4.047666 -0.379921
v 2.119286 3.374221 -0.379921
v 1.836219 3.600273 -0.097786
v 0.753911 3.070425 -0.379921
v 0.619218 3.329489 -0.097786
v -1.597278 3.099141 -0.379921
v -1.170196 3.093925 -0.097786
v 0.535753 2.871237 -0.379921
v 0.086915 2.843473 -0.097786
v -1.178847 2.765176 -0.097786
v -1.606763 2.738706 -0.379921
v 0.431416 2.302129 -0.379921
v -0.005321 2.340371 -0.097786
v -1.072334 2.433802 -0.097786
v -1.521397 2.473123 -0.379921
v -0.266146 2.152235 -0.097786
v -0.147177 1.884783 -0.379921
v -0.952203 2.049382 -0.097786
v -1.284268 1.714312 -0.379921
v -1.569339 3.254366 -0.379921
v -1.138800 3.268355 -0.097786
v -1.893201 3.397977 -1.354359
v -1.810044 3.178878 -1.354359
v -1.798853 3.246908 -0.819088
v -1.552075 3.940176 -0.819088
v -1.549369 4.047666 -0.866976
v -1.546770 4.095484 -0.819088
v -1.549369 4.047666 -0.771200
v -1.597278 3.099142 -0.866976
v -1.586947 3.156538 -0.819088
v -1.597278 3.099142 -0.771200
v -1.598538 3.051270 -0.819088
v -1.800551 3.236588 -0.819088
v -1.810044 3.178877 -0.866976
v -1.893201 3.397977 -0.866976
v -1.852288 3.372905 -0.819088
v 1.985346 3.294737 -1.354359
v 1.985346 3.294736 -0.536514
v 1.985346 3.294736 -0.379921
v 1.517805 3.529426 -0.097786
v -1.576649 3.213753 -0.379921
v -1.147015 3.222718 -0.097786
v 0.303551 1.750906 -1.354359
v -1.468993 2.305431 -1.354359
v 0.303551 2.209898 -0.536514
v -1.468993 2.305431 -0.819088
v 0.303551 2.209898 -0.379921
v -0.062961 2.298794 -0.097786
v -1.468993 2.305431 -0.379921
v -1.045786 2.348848 -0.097786
v 2.282041 2.195315 -1.354359
v 2.260367 1.971003 -1.354359
v 2.046505 1.667438 -1.354359
v 1.430930 1.445378 -1.354359
v 2.282041 2.195315 -0.536514
v 2.260367 1.971003 -0.536514
v 2.046505 1.667438 -0.536514
v 1.430930 1.445377 -0.536514
v 0.584217 1.350781 -1.354359
v 0.584217 1.350781 -0.536514
vn 0.1483 -0.9889 0.0000
vn -0.0000 0.0000 -1.0000
vn -0.9545 -0.2983 0.0000
vn -0.9997 0.0252 -0.0000
vn -0.9985 0.0543 -0.0000
vn 0.0000 1.0000 0.0000
vn -0.3509 -0.9364 0.0000
vn 0.9068 -0.4215 0.0000
vn -0.9842 0.1771 0.0000
vn 0.8437 0.5369 0.0000
vn 0.9655 0.2605 -0.0000
vn -0.8157 0.5785 0.0000
vn -0.9520 -0.3060 0.0000
vn 0.4207 0.9072 0.0000
vn 0.9998 0.0179 0.0000
vn 0.0997 -0.9423 -0.3196
vn -0.4062 0.9138 0.0000
vn 0.6743 -0.7385 0.0000
vn 0.9836 -0.1803 0.0000
vn 0.5850 -0.8110 0.0000
vn 0.1792 -0.9838 0.0000
vn -0.9997 0.0263 -0.0000
vn -0.8839 0.4678 0.0000
vn 0.3562 0.7682 -0.5320
vn -0.3536 0.7956 -0.4920
vn 0.0000 0.7071 -0.7071
vn 0.5413 0.3445 -0.7670
vn -0.5211 0.3696 -0.7693
vn 0.5879 0.0105 -0.8088
vn -0.5482 0.0298 -0.8358
vn 0.5672 -0.2636 -0.7803
vn 0.1336 -0.6708 -0.7295
vn 0.4768 -0.5222 -0.7071
vn -0.5510 0.0145 -0.8344
vn 0.5340 -0.0979 -0.8398
vn -0.5348 -0.1719 -0.8273
vn 0.1048 -0.6993 -0.7071
vn 0.4105 -0.5691 -0.7125
vn -0.5350 -0.1672 -0.8282
vn -0.5477 0.0986 -0.8309
vn -0.5484 0.0138 -0.8361
vn -0.9349 -0.3548 0.0000
vn -0.9994 0.0341 0.0000
vn -0.9940 0.1094 -0.0000
vn -0.7971 -0.3025 -0.5226
vn -0.6250 0.3308 -0.7071
vn -0.2249 -0.6001 -0.7677
vn 0.2025 -0.6092 -0.7667
vn 0.5103 -0.8600 -0.0000
vn -0.9075 -0.4045 -0.1135
vn 0.3393 -0.9407 0.0000
vn 0.9954 -0.0962 0.0000
vn 0.8175 -0.5759 0.0000
vn 0.1110 -0.9938 0.0000
vn -0.0000 -0.0000 1.0000
vn 0.0997 -0.9423 0.3196
vn 0.3562 0.7682 0.5320
vn -0.3536 0.7956 0.4920
vn 0.0000 0.7071 0.7071
vn 0.5413 0.3445 0.7670
vn -0.5211 0.3696 0.7693
vn 0.5879 0.0105 0.8088
vn -0.5482 0.0298 0.8358
vn 0.5672 -0.2636 0.7803
vn 0.1336 -0.6708 0.7295
vn 0.4768 -0.5222 0.7071
vn -0.5510 0.0145 0.8344
vn 0.5340 -0.0979 0.8398
vn -0.5348 -0.1719 0.8273
vn 0.1048 -0.6993 0.7071
vn 0.4105 -0.5691 0.7125
vn -0.5350 -0.1672 0.8282
vn -0.5477 0.0986 0.8309
vn -0.5484 0.0138 0.8361
vn -0.7971 -0.3025 0.5226
vn -0.6250 0.3308 0.7071
vn -0.2249 -0.6001 0.7677
vn 0.2025 -0.6092 0.7667
vn -0.9075 -0.4045 0.1135
usemtl None
s off
f 14//1 15//1 50//1 48//1
f 52//2 31//2 30//2 34//2
f 72//3 13//3 46//3 75//3
f 16//4 54//4 57//4 32//4 51//4
f 89//5 87//5 6//5 56//5 55//5
f 70//2 52//2 34//2 68//2
f 20//2 21//2 24//2 17//2
f 85//6 84//6 1//6 4//6
f 91//7 149//7 63//7 58//7
f 88//8 90//8 8//8 7//8
f 60//9 59//9 16//9 51//9 69//9 37//9
f 82//10 86//10 5//10 2//10
f 66//11 163//11 177//11 77//11
f 87//12 83//12 3//12 6//12
f 93//13 92//13 11//13 13//13
f 9//2 66//2 77//2 78//2
f 94//1 95//1 15//1 14//1
f 84//14 82//14 2//14 1//14
f 62//2 65//2 53//2
f 86//15 88//15 7//15 5//15
f 169//16 94//16 14//16 71//16
f 54//2 16//2 53//2 65//2
f 170//3 93//3 13//3 72//3
f 83//17 85//17 4//17 3//17
f 12//2 10//2 79//2 80//2
f 62//2 53//2 16//2 59//2
f 4//6 1//6 18//6 23//6
f 6//12 3//12 22//12 28//12
f 5//15 7//15 29//15 25//15
f 9//18 10//18 39//18 35//18
f 10//19 12//19 43//19 39//19
f 71//20 14//20 48//20 73//20
f 66//21 9//21 35//21 67//21
f 7//8 8//8 33//8 29//8
f 27//2 26//2 30//2 31//2
f 11//22 61//22 60//22 37//22 42//22
f 2//10 5//10 25//10 19//10
f 41//2 40//2 44//2 45//2
f 148//23 89//23 55//23 64//23
f 21//2 20//2 26//2 27//2
f 13//13 11//13 42//13 46//13
f 3//17 4//17 23//17 22//17
f 76//2 74//2 47//2 49//2
f 38//2 36//2 40//2 41//2
f 18//24 19//24 20//24 17//24
f 22//25 23//25 24//25 21//25
f 23//26 18//26 17//26 24//26
f 19//27 25//27 26//27 20//27
f 28//28 22//28 21//28 27//28
f 25//29 29//29 30//29 26//29
f 32//30 28//30 27//30 31//30
f 29//31 33//31 34//31 30//31
f 67//32 35//32 36//32 68//32
f 35//33 39//33 40//33 36//33
f 42//34 37//34 38//34 41//34
f 39//35 43//35 44//35 40//35
f 46//36 42//36 41//36 45//36
f 48//37 50//37 49//37 47//37
f 73//38 48//38 47//38 74//38
f 75//39 46//39 45//39 76//39
f 69//40 51//40 52//40 70//40
f 51//41 32//41 31//41 52//41
f 1//14 2//14 19//14 18//14
f 63//42 149//42 148//42 64//42
f 92//22 91//22 58//22 61//22 11//22
f 54//43 55//43 56//43 57//43
f 58//44 59//44 60//44 61//44
f 63//45 64//45 65//45 62//45
f 54//46 65//46 64//46 55//46
f 62//47 59//47 58//47 63//47
f 57//5 56//5 6//5 28//5 32//5
f 37//40 69//40 70//40 38//40
f 33//48 67//48 68//48 34//48
f 8//49 66//49 67//49 33//49
f 90//49 163//49 66//49 8//49
f 38//2 70//2 68//2 36//2
f 50//39 75//39 76//39 49//39
f 43//38 73//38 74//38 44//38
f 45//2 44//2 74//2 76//2
f 12//20 71//20 73//20 43//20
f 95//3 170//3 72//3 15//3
f 169//50 71//50 81//50 185//50
f 15//3 72//3 75//3 50//3
f 179//51 180//51 80//51 79//51
f 177//52 178//52 78//52 77//52
f 178//53 179//53 79//53 78//53
f 180//54 185//54 81//54 80//54
f 10//2 9//2 78//2 79//2
f 71//2 12//2 80//2 81//2
f 109//1 143//1 145//1 110//1
f 147//55 129//55 125//55 126//55
f 172//3 175//3 141//3 108//3
f 111//4 146//4 127//4 154//4 151//4
f 89//5 152//5 153//5 101//5 87//5
f 168//55 166//55 129//55 147//55
f 115//55 112//55 119//55 116//55
f 85//6 99//6 96//6 84//6
f 91//7 155//7 160//7 149//7
f 88//8 102//8 103//8 90//8
f 157//9 132//9 167//9 146//9 111//9 156//9
f 82//10 97//10 100//10 86//10
f 164//11 181//11 177//11 163//11
f 87//12 101//12 98//12 83//12
f 93//13 108//13 106//13 92//13
f 104//55 182//55 181//55 164//55
f 94//1 109//1 110//1 95//1
f 84//14 96//14 97//14 82//14
f 159//55 150//55 162//55
f 86//15 100//15 102//15 88//15
f 169//56 171//56 109//56 94//56
f 151//55 162//55 150//55 111//55
f 170//3 172//3 108//3 93//3
f 83//17 98//17 99//17 85//17
f 107//55 184//55 183//55 105//55
f 159//55 156//55 111//55 150//55
f 99//6 118//6 113//6 96//6
f 101//12 123//12 117//12 98//12
f 100//15 120//15 124//15 102//15
f 104//18 130//18 134//18 105//18
f 105//19 134//19 138//19 107//19
f 171//20 173//20 143//20 109//20
f 164//21 165//21 130//21 104//21
f 102//8 124//8 128//8 103//8
f 122//55 126//55 125//55 121//55
f 106//22 137//22 132//22 157//22 158//22
f 97//10 114//10 120//10 100//10
f 136//55 140//55 139//55 135//55
f 148//23 161//23 152//23 89//23
f 116//55 122//55 121//55 115//55
f 108//13 141//13 137//13 106//13
f 98//17 117//17 118//17 99//17
f 176//55 144//55 142//55 174//55
f 133//55 136//55 135//55 131//55
f 113//57 112//57 115//57 114//57
f 117//58 116//58 119//58 118//58
f 118//59 119//59 112//59 113//59
f 114//60 115//60 121//60 120//60
f 123//61 122//61 116//61 117//61
f 120//62 121//62 125//62 124//62
f 127//63 126//63 122//63 123//63
f 124//64 125//64 129//64 128//64
f 165//65 166//65 131//65 130//65
f 130//66 131//66 135//66 134//66
f 137//67 136//67 133//67 132//67
f 134//68 135//68 139//68 138//68
f 141//69 140//69 136//69 137//69
f 143//70 142//70 144//70 145//70
f 173//71 174//71 142//71 143//71
f 175//72 176//72 140//72 141//72
f 167//73 168//73 147//73 146//73
f 146//74 147//74 126//74 127//74
f 96//14 113//14 114//14 97//14
f 160//42 161//42 148//42 149//42
f 92//22 106//22 158//22 155//22 91//22
f 151//43 154//43 153//43 152//43
f 155//44 158//44 157//44 156//44
f 160//75 159//75 162//75 161//75
f 151//76 152//76 161//76 162//76
f 159//77 160//77 155//77 156//77
f 154//5 127//5 123//5 101//5 153//5
f 132//73 133//73 168//73 167//73
f 128//78 129//78 166//78 165//78
f 103//49 128//49 165//49 164//49
f 90//49 103//49 164//49 163//49
f 133//55 131//55 166//55 168//55
f 145//72 144//72 176//72 175//72
f 138//71 139//71 174//71 173//71
f 140//55 176//55 174//55 139//55
f 107//20 138//20 173//20 171//20
f 95//3 110//3 172//3 170//3
f 169//79 185//79 186//79 171//79
f 110//3 145//3 175//3 172//3
f 179//51 183//51 184//51 180//51
f 177//52 181//52 182//52 178//52
f 178//53 182//53 183//53 179//53
f 180//54 184//54 186//54 185//54
f 105//55 183//55 182//55 104//55
f 171//55 186//55 184//55 107//55
